inDegrees=no
num_controls=7
num_derivatives=13
num_iterations=94
num_multipliers=7
num_parameters=0
num_slacks=7
num_states=26
objective=0.481521
objective_accelerations=0.004310
objective_balance=0.000655
objective_effort=0.008018
objective_height=0.463221
objective_ligament=0.005318
solver_duration=1112.207302
status=Solve_Succeeded
success=true
DataType=double
version=3
OpenSimVersion=4.5
endheader
time	/jointset/ground_pelvis/pelvis_tilt/value	/jointset/ground_pelvis/pelvis_tx/value	/jointset/ground_pelvis/pelvis_ty/value	/jointset/hip_r/hip_flexion_r/value	/jointset/hip_r/hip_adduction_r/value	/jointset/hip_r/hip_rotation_r/value	/jointset/back/lumbar_extension/value	/jointset/patellofemoral_r/patellar_flexion_r/value	/jointset/knee_r/knee_flexion_r/value	/jointset/knee_r/knee_adduction_r/value	/jointset/knee_r/knee_rotation_r/value	/jointset/ankle_r/ankle_angle_r/value	/jointset/subtalar_r/subtalar_angle_r/value	/jointset/ground_pelvis/pelvis_tilt/speed	/jointset/ground_pelvis/pelvis_tx/speed	/jointset/ground_pelvis/pelvis_ty/speed	/jointset/hip_r/hip_flexion_r/speed	/jointset/hip_r/hip_adduction_r/speed	/jointset/hip_r/hip_rotation_r/speed	/jointset/back/lumbar_extension/speed	/jointset/patellofemoral_r/patellar_flexion_r/speed	/jointset/knee_r/knee_flexion_r/speed	/jointset/knee_r/knee_adduction_r/speed	/jointset/knee_r/knee_rotation_r/speed	/jointset/ankle_r/ankle_angle_r/speed	/jointset/subtalar_r/subtalar_angle_r/speed	/forceset/tau_hip_flexion_r	/forceset/tau_hip_adduction_r	/forceset/tau_hip_rotation_r	/forceset/tau_knee_flexion_r	/forceset/tau_ankle_angle_r	/forceset/tau_subtalar_angle_r	/forceset/tau_lumbar_extension	lambda_cid13_p0	lambda_cid14_p0	lambda_cid14_p1	lambda_cid14_p2	lambda_cid14_p3	lambda_cid14_p4	lambda_cid14_p5	/jointset/ground_pelvis/pelvis_tilt/accel	/jointset/ground_pelvis/pelvis_tx/accel	/jointset/ground_pelvis/pelvis_ty/accel	/jointset/hip_r/hip_flexion_r/accel	/jointset/hip_r/hip_adduction_r/accel	/jointset/hip_r/hip_rotation_r/accel	/jointset/back/lumbar_extension/accel	/jointset/patellofemoral_r/patellar_flexion_r/accel	/jointset/knee_r/knee_flexion_r/accel	/jointset/knee_r/knee_adduction_r/accel	/jointset/knee_r/knee_rotation_r/accel	/jointset/ankle_r/ankle_angle_r/accel	/jointset/subtalar_r/subtalar_angle_r/accel	gamma_cid13_p0	gamma_cid14_p0	gamma_cid14_p1	gamma_cid14_p2	gamma_cid14_p3	gamma_cid14_p4	gamma_cid14_p5
1.5	0.1016099901459088	0.1412940666823765	0.9384273016108803	0.1046628324553353	-0.07777768842258649	-0.02620434709461972	-0.3867593146998439	0.2951858252741034	0.2951858252741016	-0.1694216284918353	-0.155585683055164	0.1583952652607428	0.2832853962997488	-0.01948256800375667	-0.01567756395595632	0.01922948080877257	-0.09392245936327581	0.02306780778319028	0.05883701497715969	0.3598582612186187	-0.2469130028527038	-0.2469130028527092	-0.01047876254310223	-0.05995330975791194	-0.1560428331294705	-0.04933464414754009	0.02850884867393572	0.04428083230948678	0.03867931969984304	-0.1587789692178603	-0.002254035892383311	-0.01831185058033542	0.06953600823497255	-28.72195461115913	-50.11791343183491	-22.10432832276311	10.08689049498931	6.298994290020929	-661.7828565586807	40.22919355867635	-0.07212981058465433	-0.07579512502748846	-0.01064645882586687	0.1118624229066298	0.03827936976357856	0.08387887047733304	0.2052320556776709	-0.09918001312010259	-0.09918001312010333	-0.08905102540204232	-0.08616979580596851	-0.1658662749250772	-0.01938802250825578	2.229014430103948e-09	6.613688305484492e-09	3.017812994261763e-08	-1.26304301096947e-08	-5.122336544650818e-09	-4.523690093129356e-10	2.722131328646972e-08
1.51	0.1014115822318818	0.1411335065045309	0.9386190274908004	0.1037294021395784	-0.07754519006604232	-0.02561207213308256	-0.3831508474344091	0.2927121252827015	0.292712125282701	-0.1695307859886811	-0.1561891754330379	0.1568267908961147	0.2827910886718377	-0.02019783065304137	-0.01643418716614844	0.01911222029579269	-0.09274158872345205	0.02341703872845739	0.05958101138560482	0.3617986670342025	-0.2477897365761255	-0.2477897365761266	-0.01133378576361539	-0.06069726042686933	-0.1576272685161233	-0.04953339598354019	0.03018207075062171	0.04397136640331192	0.03913718965460666	-0.1599022573816933	0.0004122941165285044	-0.01808221600555246	0.06790854055841965	-28.71007964684187	-49.236423061895	-22.01557230212767	10.26157190291017	6.012459620784711	-661.591757013248	40.35021705974925	-0.07104604948841062	-0.07555419699288089	-0.01278690605099315	0.1245025606479695	0.03102155756558116	0.06411239102313895	0.1829661193793821	-0.07633163209459115	-0.07633163209469879	-0.08088250306806383	-0.0613243859463132	-0.1510167547695456	-0.02109339392990014	2.103859038016548e-09	6.469594635095464e-09	2.805136702761083e-08	-1.267907417929362e-08	-4.86019500964144e-09	4.184259076611939e-10	2.573158791149541e-08
1.52	0.1012060573798844	0.1409653884389878	0.9388094765538874	0.1028084411654455	-0.07730964407991399	-0.02501346673446148	-0.3795240718558424	0.2902307756380368	0.2902307756380376	-0.1696479246242704	-0.1567986706543025	0.1552432152607733	0.2822945985996098	-0.02090595559784333	-0.01718914149545277	0.01897411744213498	-0.09142859103850524	0.02367733370002651	0.0601031023939418	0.363519923845014	-0.2484429335052341	-0.2484429335052331	-0.012074990291813	-0.06115387843605431	-0.1590630872721345	-0.0497711330109008	0.03185529282730781	0.04366190049713704	0.0395950596093702	-0.1610255455455281	0.003078624125440342	-0.01785258143076949	0.06628107288188301	-28.6975656519166	-48.35646279612602	-21.9277088542059	10.43710925280939	5.732453351215657	-661.4171311593453	40.468349609394	-0.07070226968810026	-0.07546134884992962	-0.01481492696143409	0.1382878319326621	0.0204921750239787	0.03949779045570778	0.1614022547231872	-0.05447265426061845	-0.05447265425824304	-0.06628728693893414	-0.02870326385148507	-0.1361429487959641	-0.02718506078035674	1.897223335070424e-09	6.079898997681907e-09	2.522856136183186e-08	-1.229546397032906e-08	-4.451503749245224e-09	1.236277915214616e-09	2.347996690321747e-08
1.53	0.1009935361633664	0.1407897374203734	0.9389984493612341	0.1019011820778179	-0.0770719375544192	-0.02441069631608229	-0.3758812501785784	0.2877439772671552	0.2877439772671566	-0.1697718874747849	-0.1574113557791193	0.1536460169041767	0.2817955342075387	-0.02159428219554453	-0.01794005941731782	0.01881744003839834	-0.09000592929772067	0.02385002303476548	0.06042373330469012	0.3650029025823256	-0.2488786797692955	-0.2488786797692923	-0.01269769341006363	-0.06134624357973906	-0.1603513235545447	-0.05004699790010336	0.03358444283039095	0.04332811030286925	0.04008451754984581	-0.1622679705555771	0.005911726910071375	-0.01758064490716677	0.06461127716998707	-28.68437291082853	-47.41888785198352	-21.82374369650858	10.6241951729556	5.408454121459272	-661.2370942524066	40.61416196917234	-0.06729642300907784	-0.07475730932854216	-0.01654426428292412	0.1468506260441728	0.0135650885997815	0.02425623466276577	0.1355193294043043	-0.03241676662000664	-0.03241676662116853	-0.05727692017281918	-0.00896984684998791	-0.1213750496787624	-0.02857342023250689	1.604014801836908e-09	5.429251270304789e-09	2.166621027335745e-08	-1.14525835903908e-08	-3.887103405625494e-09	1.997878081508537e-09	2.041883178455445e-08
